<svg width="20" height="19" viewBox="0 0 20 19" fill="none" xmlns="http://www.w3.org/2000/svg">
<path fill-rule="evenodd" clip-rule="evenodd" d="M18.0982 0.395412C17.5659 -0.132096 16.7035 -0.131758 16.1716 0.396152L10.0377 6.48407L9.75893 6.20746C8.42304 6.91711 7.01767 7.47541 5.51529 7.72385C3.70145 8.0238 1.87484 8.1464 0.037936 8.1464C-0.479084 14.3024 4.35296 19.5219 10.6021 18.9582L10.8202 18.5254C11.5139 17.1489 12.1886 15.1304 12.6816 13.4999C13.0269 12.3579 13.3417 11.2081 13.6335 10.0518L13.4664 9.886L19.6013 3.79716C20.1333 3.26901 20.1328 2.41276 19.6004 1.88498L18.0982 0.395412ZM11.276 7.71265L12.2282 8.65742L18.0879 2.8416L17.1354 1.89712L11.276 7.71265ZM7.3924 9.07183L11.0841 12.7347C11.3531 11.8321 11.5659 11.0522 11.6909 10.5815L9.41907 8.32742C8.95545 8.53435 8.24918 8.8217 7.3924 9.07183ZM10.4945 14.6069L5.35584 9.50832C3.83853 9.73676 2.50898 9.82579 1.69411 9.86096C1.80597 13.9923 5.58011 17.3571 9.4691 17.2974C9.82097 16.5222 10.1728 15.5695 10.4945 14.6069Z" fill="black"/>
</svg>
